<?xml version="1.0" encoding="utf-8"?>
<!-- Generator: Adobe Illustrator 18.1.1, SVG Export Plug-In . SVG Version: 6.00 Build 0)  -->
<svg version="1.1" id="Layer_1" xmlns="http://www.w3.org/2000/svg" xmlns:xlink="http://www.w3.org/1999/xlink" x="0px" y="0px"
	 width="356px" height="139px" viewBox="0 0 356 139" enable-background="new 0 0 356 139" xml:space="preserve">
<g>
	<g>
		<path fill="#FFFFFF" d="M70.7,54.4h-5.1L60,45.2c-0.3,0-0.8,0-1.4,0c-0.6,0-1.4,0-2.6-0.1v9.3h-4.4V29c2.3-0.3,4.6-0.4,6.8-0.4
			c3.5,0,6.1,0.7,7.9,2.2c1.8,1.5,2.6,3.4,2.6,5.8c0,1.7-0.4,3.1-1.3,4.4s-2.1,2.3-3.7,3L70.7,54.4z M64.4,36.9
			c0-1.3-0.5-2.4-1.4-3.2c-0.9-0.8-2.2-1.2-3.9-1.2c-1.3,0-2.2,0.1-2.9,0.2v8.8c0.7,0.1,1.6,0.1,2.5,0.1c1.9,0,3.3-0.4,4.3-1.2
			S64.4,38.4,64.4,36.9z"/>
		<path fill="#FFFFFF" d="M105.6,41.6c0,3.8-1.3,6.9-3.8,9.5c-2.5,2.5-5.6,3.8-9.3,3.8s-6.8-1.3-9.2-3.8c-2.4-2.5-3.6-5.7-3.6-9.5
			c0-3.8,1.2-7,3.7-9.5c2.5-2.5,5.6-3.8,9.3-3.8c3.7,0,6.8,1.3,9.2,3.8C104.3,34.6,105.6,37.8,105.6,41.6z M100.9,41.6
			c0-2.7-0.8-4.9-2.3-6.7c-1.5-1.8-3.5-2.6-5.9-2.6c-2.4,0-4.4,0.9-6,2.6c-1.6,1.8-2.3,4-2.3,6.7c0,2.7,0.8,4.9,2.3,6.7
			s3.5,2.7,6,2.7c2.4,0,4.4-0.9,5.9-2.7S100.9,44.3,100.9,41.6z"/>
		<path fill="#FFFFFF" d="M131.5,47.2c0,2.1-0.8,4-2.3,5.4c-1.5,1.5-3.6,2.2-6.2,2.2c-2.8,0-5.5-0.8-8-2.5l1.5-3.9
			c2.2,1.6,4.4,2.4,6.7,2.4c1.3,0,2.3-0.3,2.9-1c0.7-0.6,1-1.4,1-2.4s-0.3-1.8-1-2.4s-1.9-1.4-3.9-2.2c-2.2-0.9-3.7-2-4.7-3.1
			c-0.9-1.2-1.4-2.6-1.4-4.1c0-2,0.8-3.6,2.3-5.1s3.6-2.1,6.1-2.1c2.5,0,4.6,0.6,6.4,1.9l-1.4,3.9c-1.8-1.2-3.5-1.8-5.1-1.8
			c-1.3,0-2.3,0.3-2.9,0.9c-0.7,0.6-1,1.4-1,2.3c0,0.8,0.3,1.6,1,2.2s1.8,1.3,3.4,2c2.5,1.1,4.2,2.2,5.1,3.3S131.5,45.4,131.5,47.2z
			"/>
		<path fill="#FFFFFF" d="M158.4,54.4h-15.6V28.7h15.6v4h-11.3v6.7h10.2v3.8h-10.2v7.1h11.3V54.4z"/>
		<path fill="#FFFFFF" d="M187.9,47.3c0,2-0.9,3.8-2.8,5.2c-1.8,1.4-4.4,2.2-7.7,2.2c-2.1,0-4.4-0.2-6.9-0.5V29
			c2.2-0.3,4.4-0.5,6.6-0.5c3.2,0,5.7,0.7,7.4,2c1.8,1.3,2.6,2.9,2.6,4.7c0,2.8-1.5,4.7-4.5,5.8C186.1,42.1,187.9,44.1,187.9,47.3z
			 M182.7,36c0-1.1-0.4-2-1.2-2.7c-0.8-0.7-2-1-3.6-1c-1,0-2,0.1-3,0.2v7.1c0.6,0.1,1.5,0.1,2.6,0.1c1.8,0,3.1-0.3,4-1
			C182.2,38,182.7,37.1,182.7,36z M183.2,46.8c0-1.1-0.5-2.1-1.5-2.8c-1-0.7-2.4-1.1-4.2-1.1c-1.2,0-2.1,0-2.7,0.1v7.7
			c1,0.1,2,0.2,3.1,0.2c1.7,0,3-0.4,3.9-1.1C182.7,49,183.2,48,183.2,46.8z"/>
		<path fill="#FFFFFF" d="M214.7,54.4h-15.6V28.7h15.6v4h-11.3v6.7h10.2v3.8h-10.2v7.1h11.3V54.4z"/>
		<path fill="#FFFFFF" d="M245.9,54.4h-5.1l-5.6-9.2c-0.3,0-0.8,0-1.4,0c-0.6,0-1.4,0-2.6-0.1v9.3h-4.4V29c2.3-0.3,4.6-0.4,6.8-0.4
			c3.5,0,6.1,0.7,7.9,2.2c1.8,1.5,2.6,3.4,2.6,5.8c0,1.7-0.4,3.1-1.3,4.4s-2.1,2.3-3.7,3L245.9,54.4z M239.5,36.9
			c0-1.3-0.5-2.4-1.4-3.2c-0.9-0.8-2.2-1.2-3.9-1.2c-1.3,0-2.2,0.1-2.9,0.2v8.8c0.7,0.1,1.6,0.1,2.5,0.1c1.9,0,3.3-0.4,4.3-1.2
			S239.5,38.4,239.5,36.9z"/>
		<path fill="#FFFFFF" d="M275,54.4h-5.1l-5.6-9.2c-0.3,0-0.8,0-1.4,0c-0.6,0-1.4,0-2.6-0.1v9.3H256V29c2.3-0.3,4.6-0.4,6.8-0.4
			c3.5,0,6.1,0.7,7.9,2.2c1.8,1.5,2.6,3.4,2.6,5.8c0,1.7-0.4,3.1-1.3,4.4s-2.1,2.3-3.7,3L275,54.4z M268.7,36.9
			c0-1.3-0.5-2.4-1.4-3.2c-0.9-0.8-2.2-1.2-3.9-1.2c-1.3,0-2.2,0.1-2.9,0.2v8.8c0.7,0.1,1.6,0.1,2.5,0.1c1.9,0,3.3-0.4,4.3-1.2
			S268.7,38.4,268.7,36.9z"/>
		<path fill="#FFFFFF" d="M304.3,28.7l-9,14.9v10.8h-4.4V43.6l-9-14.8h5l6.3,10.8l6.2-10.8H304.3z"/>
	</g>
	<g>
		<path fill="#FFFFFF" d="M125.7,109.1c-1.7,1.1-3.5,1.6-5.5,1.6c-2.7,0-4.8-0.8-6.5-2.5c-1.7-1.6-2.6-3.7-2.6-6.2
			c0-2.5,0.9-4.6,2.6-6.2c1.7-1.7,3.9-2.5,6.5-2.5c1.9,0,3.8,0.5,5.4,1.5l-1,2.4c-1.5-0.9-3-1.3-4.5-1.3c-1.8,0-3.3,0.6-4.3,1.7
			s-1.6,2.6-1.6,4.4c0,1.8,0.5,3.2,1.6,4.3c1.1,1.1,2.6,1.7,4.4,1.7c1.6,0,3.1-0.4,4.6-1.3L125.7,109.1z"/>
		<path fill="#FFFFFF" d="M148.6,102c0,2.5-0.8,4.6-2.5,6.2c-1.6,1.7-3.7,2.5-6.1,2.5s-4.5-0.8-6-2.5c-1.6-1.6-2.4-3.7-2.4-6.2
			c0-2.5,0.8-4.6,2.5-6.2c1.6-1.7,3.7-2.5,6.1-2.5c2.4,0,4.5,0.8,6,2.5S148.6,99.5,148.6,102z M145.5,102c0-1.8-0.5-3.2-1.5-4.4
			s-2.3-1.7-3.9-1.7s-2.9,0.6-3.9,1.7c-1,1.2-1.5,2.6-1.5,4.4c0,1.8,0.5,3.2,1.5,4.4c1,1.2,2.3,1.7,3.9,1.7c1.6,0,2.9-0.6,3.9-1.7
			C145,105.2,145.5,103.7,145.5,102z"/>
		<path fill="#FFFFFF" d="M167.7,96.2h-5.3v14.2h-2.9V96.2h-5.4v-2.6h13.6V96.2z"/>
		<path fill="#FFFFFF" d="M187,96.2h-5.3v14.2h-2.9V96.2h-5.4v-2.6H187V96.2z"/>
		<path fill="#FFFFFF" d="M206.5,110.4h-3l-1.6-3.9h-6.7l-1.6,3.9h-3l7.8-17.1h0.4L206.5,110.4z M200.9,104.3l-2.4-5.6l-2.4,5.6
			H200.9z"/>
		<path fill="#FFFFFF" d="M220.2,101.5h6.7v7.4c-1.9,1.2-4,1.8-6.3,1.8c-1.6,0-3.1-0.4-4.5-1.1c-1.4-0.7-2.4-1.7-3.3-3.1
			c-0.8-1.3-1.2-2.9-1.2-4.5c0-2.5,0.9-4.6,2.6-6.3c1.8-1.6,3.9-2.4,6.3-2.4c2.1,0,4.1,0.6,6,1.7l-1.3,2.3c-1.5-0.9-3-1.4-4.5-1.4
			c-1.9,0-3.3,0.6-4.4,1.7c-1.1,1.2-1.6,2.6-1.6,4.3c0,1.8,0.6,3.2,1.7,4.4c1.2,1.2,2.6,1.7,4.3,1.7c1.3,0,2.4-0.3,3.4-0.8V104h-3.9
			V101.5z"/>
		<path fill="#FFFFFF" d="M244.9,110.4h-10.3V93.5h10.3v2.6h-7.4v4.4h6.7v2.5h-6.7v4.7h7.4V110.4z"/>
	</g>
	<rect x="89.4" y="73.3" fill="#FFFFFF" width="178" height="1"/>
	<circle fill="#FFFFFF" cx="88.1" cy="73.8" r="1.5"/>
	<circle fill="#FFFFFF" cx="267.9" cy="73.8" r="1.5"/>
	<path fill="#FFFFFF" d="M356,139H0V0h356V139z M2,137h352V2H2V137z"/>
</g>
</svg>
