<?xml version="1.0" encoding="utf-8"?>
<!-- Generator: Adobe Illustrator 18.1.1, SVG Export Plug-In . SVG Version: 6.00 Build 0)  -->
<svg version="1.1" id="Layer_1" xmlns="http://www.w3.org/2000/svg" xmlns:xlink="http://www.w3.org/1999/xlink" x="0px" y="0px"
	 width="512px" height="512px" viewBox="-703 705 512 512" enable-background="new -703 705 512 512" xml:space="preserve">
<path fill="#67AEBF" d="M-703,705v512h512V705H-703z M-287.9,879.4c0.2,3.5,0.2,7.1,0.2,10.6c0,108.4-82.5,233.5-233.5,233.5
	c-46.3,0-89.5-13.6-125.8-36.9c6.4,0.8,13,1.2,19.6,1.2c38.5,0,73.8-13.1,101.9-35.1c-35.9-0.7-66.2-24.4-76.7-57
	c5,0.9,10.1,1.5,15.4,1.5c7.5,0,14.7-1,21.6-2.9c-37.5-7.6-65.8-40.7-65.8-80.5c0-0.3,0-0.7,0-1c11.1,6.1,23.7,9.8,37.2,10.3
	c-22-14.7-36.5-39.8-36.5-68.3c0-15,4-29.1,11.1-41.3c40.5,49.7,100.9,82.3,169.1,85.8c-1.4-6-2.1-12.3-2.1-18.7
	c0-45.3,36.7-82.1,82.1-82.1c23.6,0,44.9,10,59.9,25.9c18.7-3.7,36.3-10.5,52.1-19.9c-6.1,19.2-19.1,35.2-36.1,45.4
	c16.6-2,32.4-6.4,47.1-12.9l0,0l0,0c0,0,0,0,0,0C-258,853.4-271.9,867.8-287.9,879.4z"/>
</svg>
